<svg xmlns="http://www.w3.org/2000/svg" viewBox="0 0 174 36.61"><defs><style>.cls-1{fill:#ea7023;}.cls-2{fill:#002f87;}</style></defs><title>BRI Ventures - Desktop Website</title><g id="Layer_6" data-name="Layer 6"><polygon class="cls-1" points="92.19 13.74 88.81 23.73 85.42 13.74 82.42 13.74 87.61 27.46 90 27.46 95.19 13.74 92.19 13.74"/><path class="cls-1" d="M115.26,13.44a5.27,5.27,0,0,0-3.78,1.69V13.74H108.7V27.46h2.78V17.79a4.74,4.74,0,0,1,3.41-2,2.15,2.15,0,0,1,1.76.64,3.56,3.56,0,0,1,.54,2.22v8.81H120V18.54C120,15.15,118.38,13.44,115.26,13.44Z"/><path class="cls-1" d="M125.29,10.42h-2.77v3.31h-1.64V16.5h1.64v6.85a12.05,12.05,0,0,0,.17,2.26,2.38,2.38,0,0,0,.92,1.46,3.66,3.66,0,0,0,2.26.56,9.19,9.19,0,0,0,1.73-.15l.16,0v-2.2l-.24,0a6.55,6.55,0,0,1-1.14.1,1,1,0,0,1-.8-.31c-.13-.14-.29-.53-.29-1.6v-7h2.47V13.74h-2.47Z"/><path class="cls-2" d="M52.3,18.12v-.05a4.13,4.13,0,0,0,3.21-4.25c0-3.14-2.53-4.62-5.92-4.62H41.21V27.42h7.67c3.26,0,7.1-.91,7.1-5.27C56,19.92,54.74,18.62,52.3,18.12Zm-6.24-5.48h1.41c1.62,0,3.18.16,3.18,1.82S49,16.4,47.42,16.4H46.07ZM47.5,24H46.07V19.69h1.49c1.67,0,3.58.18,3.58,2.17S49.28,24,47.5,24Z"/><path class="cls-2" d="M68.11,18.44v-.05a4.26,4.26,0,0,0,3.5-4.59c0-3.13-2.64-4.6-5.87-4.6H57.06V27.42h4.85V20.21h1c1.8,0,2.43.79,3.42,3.92l1,3.29h5.06l-1.77-5C69.77,20.24,69.67,18.85,68.11,18.44ZM63.2,16.76H61.92V12.64H63.2c1.85,0,3.55.31,3.55,2C66.75,16.71,64.76,16.76,63.2,16.76Z"/><rect class="cls-2" x="73.27" y="9.19" width="4.86" height="18.22"/><path class="cls-2" d="M31,0H5.59A5.66,5.66,0,0,0,0,5.72V30.89a5.66,5.66,0,0,0,5.5,5.72H31a5.66,5.66,0,0,0,5.59-5.72V5.72A5.66,5.66,0,0,0,31,0ZM8.61,33.68l-1.39,0a3.06,3.06,0,0,1-3-3.08V5.88a3,3,0,0,1,3-3H10a4.77,4.77,0,0,1,4.63,4.84,4.79,4.79,0,0,1-1.33,3.33L6.06,18.37l6.74,6.86a4.82,4.82,0,0,1,1.39,3.36A5.35,5.35,0,0,1,8.61,33.68Zm20.72,0H16.76a16.34,16.34,0,0,0,1.45-5.08,8.91,8.91,0,0,0-2-5.88l-4.3-4.38,4.39-4.53a8.17,8.17,0,0,0,2.17-5.89,8.79,8.79,0,0,0-1.42-5h3a4.77,4.77,0,0,1,4.63,4.84,4.79,4.79,0,0,1-1.33,3.33L16.31,18.3,31,33.23A3.08,3.08,0,0,1,29.33,33.66ZM32.39,29l-10.5-10.7,5-5.08a8.66,8.66,0,0,0,1.66-5.33,8.88,8.88,0,0,0-1.44-5l2.24.07A3.06,3.06,0,0,1,32.4,6Z"/><path class="cls-1" d="M141.16,27.46V13.74h-2.8v8.21a3.06,3.06,0,0,1-.21,1.15,3.23,3.23,0,0,1-3,2.08c-1.85,0-2.74-1.32-2.74-4V13.74h-2.8v7.86c0,5.4,3.32,6,4.75,6a5.11,5.11,0,0,0,4.25-2.11v2Z"/><path class="cls-1" d="M167,17.39c0-1.18,1.1-1.66,2.22-1.66a5,5,0,0,1,3.34,1.2l1-2a6.09,6.09,0,0,0-4.36-1.5c-2.7,0-4.9,1.39-4.9,3.85,0,4.41,7,3.91,7,6.39,0,1.1-1.12,1.69-2.25,1.69a5.81,5.81,0,0,1-3.88-1.58L164,25.69a7.28,7.28,0,0,0,5.14,2c3,0,4.9-1.68,4.9-3.93C174,19.29,167,19.83,167,17.39Z"/><path class="cls-1" d="M150.74,13.53a4.59,4.59,0,0,0-.67-.05A4.67,4.67,0,0,0,145.74,17h-.05a9.84,9.84,0,0,0,.05-1V13.74h-2.54V27.46h2.62V21.71a8.32,8.32,0,0,1,.32-2.46A4.14,4.14,0,0,1,150,16a3.79,3.79,0,0,1,.76.08Z"/><path class="cls-1" d="M101.64,13.53c-3.84,0-6.75,2.77-6.75,7.07A6.87,6.87,0,0,0,102,27.67a8,8,0,0,0,5.23-1.92l-1.07-1.89a6.44,6.44,0,0,1-4,1.57A4.41,4.41,0,0,1,97.56,21h9.84s.08-.77.08-1.12C107.48,16.36,105.46,13.53,101.64,13.53Zm-4,5.49a3.87,3.87,0,0,1,3.95-3.44c1.73,0,3.17,1.12,3.25,3.44Z"/><path class="cls-1" d="M157.48,13.53c-3.84,0-6.75,2.77-6.75,7.07a6.87,6.87,0,0,0,7.15,7.07,8,8,0,0,0,5.23-1.92L162,23.85a6.44,6.44,0,0,1-4,1.57A4.41,4.41,0,0,1,153.4,21h9.84s.08-.77.08-1.12C163.33,16.36,161.3,13.53,157.48,13.53Zm-4,5.49a3.87,3.87,0,0,1,3.95-3.44c1.73,0,3.17,1.12,3.25,3.44Z"/></g></svg>