<?xml version="1.0" encoding="utf-8"?>
<!-- Generator: Adobe Illustrator 21.0.0, SVG Export Plug-In . SVG Version: 6.00 Build 0)  -->
<svg version="1.1" id="Layer_1" xmlns="http://www.w3.org/2000/svg" xmlns:xlink="http://www.w3.org/1999/xlink" x="0px" y="0px"
	 viewBox="0 0 212.6 57.6" style="enable-background:new 0 0 212.6 57.6;" xml:space="preserve">
<style type="text/css">
	.st0{fill:#E82429;}
	.st1{fill-rule:evenodd;clip-rule:evenodd;fill:#E82429;}
	.st2{fill-rule:evenodd;clip-rule:evenodd;fill:#59595C;}
	.st3{fill:#59595C;}
</style>
<g>
	<g>
		<path class="st0" d="M117.2,28.5h-1.7l-4.9-13.4h2.1l3.6,10.8l3.7-10.8h2.1L117.2,28.5z"/>
		<path class="st0" d="M125.8,22.3c0,2.9,1.4,4.6,3.9,4.6c1.6,0,2.4-0.5,3.5-1.5l1.3,1.2c-1.4,1.4-2.6,2.1-4.9,2.1
			c-3.5,0-5.9-2.1-5.9-6.9c0-4.3,2.1-6.9,5.5-6.9c3.5,0,5.5,2.5,5.5,6.5v0.9H125.8z M132.5,18.6c-0.5-1.2-1.7-2-3.1-2
			c-1.4,0-2.6,0.8-3.1,2c-0.3,0.7-0.4,1.1-0.4,2.2h7.1C132.9,19.8,132.8,19.4,132.5,18.6z"/>
		<path class="st0" d="M147.3,28.5v-8.3c0-2.4-1.3-3.6-3.3-3.6c-2,0-3.3,1.2-3.3,3.6v8.3h-2V15.1h2v1.5c1-1.1,2.3-1.6,3.8-1.6
			c1.4,0,2.6,0.4,3.4,1.3c1,0.9,1.4,2.2,1.4,3.7v8.6H147.3z"/>
		<path class="st0" d="M157.6,28.5c-2.3,0-3.4-1.6-3.4-3.6v-8.2h-1.7v-1.5h1.7V11h2v4.2h2.9v1.5h-2.9v8.2c0,1.2,0.6,2,1.8,2h1v1.7
			H157.6z"/>
		<path class="st0" d="M171,28.5V27c-1,1.1-2.3,1.7-3.8,1.7c-1.4,0-2.6-0.4-3.5-1.3c-1-0.9-1.4-2.2-1.4-3.8v-8.5h2v8.2
			c0,2.4,1.3,3.6,3.3,3.6c2,0,3.3-1.2,3.3-3.6v-8.2h2v13.4H171z"/>
		<path class="st0" d="M185.1,17.7c-0.7-0.7-1.3-1-2.3-1c-2,0-3.2,1.6-3.2,3.6v8.2h-2V15.1h2v1.6c0.7-1.1,2.2-1.8,3.8-1.8
			c1.3,0,2.3,0.3,3.2,1.3L185.1,17.7z"/>
		<path class="st0" d="M190,22.3c0,2.9,1.4,4.6,3.9,4.6c1.6,0,2.4-0.5,3.5-1.5l1.3,1.2c-1.4,1.4-2.6,2.1-4.9,2.1
			c-3.5,0-5.9-2.1-5.9-6.9c0-4.3,2.1-6.9,5.5-6.9c3.5,0,5.5,2.5,5.5,6.5v0.9H190z M196.7,18.6c-0.5-1.2-1.7-2-3.1-2
			c-1.4,0-2.6,0.8-3.1,2c-0.3,0.7-0.4,1.1-0.4,2.2h7.1C197,19.8,197,19.4,196.7,18.6z"/>
		<path class="st0" d="M207.2,28.7c-2.3,0-4-0.5-5.5-1.9l1.3-1.3c1.1,1.1,2.5,1.6,4.2,1.6c2.2,0,3.6-0.8,3.6-2.4
			c0-1.2-0.7-1.8-2.2-2l-2.2-0.2c-2.6-0.2-4-1.4-4-3.6c0-2.5,2.1-3.9,4.9-3.9c1.9,0,3.6,0.5,4.8,1.4l-1.3,1.3
			c-1-0.7-2.2-1.1-3.6-1.1c-2,0-3,0.8-3,2.2c0,1.1,0.7,1.8,2.3,2l2.2,0.2c2.3,0.2,3.9,1.1,3.9,3.6C212.6,27.2,210.4,28.7,207.2,28.7
			z"/>
	</g>
	<g id="QBQD7b.tif_14_">
		<g>
			<path class="st1" d="M111.8,46.5c0.1-0.5,0.1-1.1,0.2-1.6c0.1-0.9,0.3-1.7,0.6-2.5c0.1-0.2,0.2-0.4,0.4-0.6
				c0.3-0.3,0.6-0.2,0.7,0.1c0.2,0.5,0.2,1,0.3,1.5c0,0.4,0,0.7,0,1.1c0,0.1,0.1,0.2,0.1,0.3c0.2,0.4,0.5,0.4,0.8,0.1
				c0.3-0.5,0.6-1.1,0.9-1.7c0.3-0.7,0.6-1.4,1-2.1c0.1-0.3,0.4-0.5,0.6-0.8c0.1-0.1,0.2-0.2,0.3-0.3c0.3-0.2,0.6-0.1,0.8,0.3
				c0.1,0.5,0.1,1.1,0,1.6c-0.1,0.8-0.2,1.6-0.3,2.5c0,0.2,0,0.3,0,0.5c0,0.3,0.2,0.4,0.5,0.3c0.2-0.1,0.3-0.2,0.4-0.3
				c0.9-0.9,1.7-1.8,2.6-2.6c0.3-0.3,0.8-0.6,1.2-0.9c0.2-0.1,0.5-0.3,0.7-0.1c0.3,0.2,0.3,0.5,0.2,0.8c-0.1,0.4-0.3,0.7-0.4,1
				c-0.5,0.9-1.1,1.8-1.7,2.7c-0.2,0.3-0.3,0.7-0.5,1c-0.1,0.3,0.1,0.5,0.4,0.5c0.2,0,0.4-0.1,0.6-0.2c0.8-0.4,1.6-0.8,2.4-1.2
				c0.5-0.2,1-0.5,1.5-0.5c0.1,0,0.2,0,0.2,0c0.5,0,0.6,0.4,0.4,0.8c-0.3,0.6-0.8,1-1.2,1.4c-1,0.9-2,1.7-3.1,2.4
				c-0.4,0.3-0.9,0.6-1.2,1.1c-0.1,0.1-0.2,0.3-0.2,0.4c-0.1,0.4,0,0.6,0.5,0.6c0.5,0,1.1,0,1.6,0.1c0.5,0,1.1,0.1,1.6,0.4
				c0.2,0.1,0.4,0.3,0.5,0.5c0.1,0.2,0,0.5-0.2,0.7c-0.4,0.3-0.9,0.4-1.4,0.5c-1.4,0.3-2.7,0.3-4.1,0.1c0,0-0.1,0-0.1,0
				c0.1-0.4,0.3-0.8,0.4-1.2c0.8-3.2-1.3-6.4-4.6-7c-1-0.2-2-0.1-3,0.2C112,46.4,111.9,46.4,111.8,46.5L111.8,46.5z"/>
			<path class="st1" d="M112.1,48.2c0.3-0.1,0.7-0.2,1-0.2c2.3-0.3,4.3,1.6,4.2,3.9c0,0.6-0.2,1.1-0.5,1.7c-0.4-0.3-0.8-0.5-1.1-0.8
				C114.1,51.5,112.9,50.1,112.1,48.2C112.2,48.2,112.2,48.2,112.1,48.2C112.1,48.2,112.1,48.2,112.1,48.2z"/>
			<path class="st2" d="M112.1,48.2c-0.7,0.2-1.2,0.7-1.6,1.3c-1.6,2.2-0.3,5.4,2.4,5.8c1.6,0.2,2.8-0.3,3.8-1.6c0,0,0-0.1,0.1-0.1
				c0,0,0,0,0,0c0.7,0.4,1.5,0.7,2.4,0.8c0,0.1-0.1,0.1-0.1,0.2c-1,1.7-2.4,2.7-4.4,3c-3,0.4-5.7-1.6-6.3-4.4
				c-0.6-2.7,0.7-5.3,3.2-6.5c0.1,0,0.2-0.1,0.3-0.2v0C111.9,47,112,47.6,112.1,48.2L112.1,48.2z"/>
		</g>
	</g>
	<g>
		<g>
			<polygon class="st0" points="95.2,3.3 102,3.3 102,0 85.1,0 85.1,3.3 91.9,3.3 91.9,30.2 85.1,30.2 85.1,33.6 102,33.6 102,30.2 
				95.2,30.2 			"/>
			<path class="st0" d="M71.4,2.4C67.5,0.3,63.6,0,63.5,0L48.6,0v3.3h2.6v26.9h-2.6v3.3h14.8h0c0.2,0,4-0.2,7.9-2.4
				c3.7-2,8.1-6.2,8.1-14.4C79.4,8.6,75,4.4,71.4,2.4z M63.3,30.2h-8.8V3.3h8.8c0.4,0,3.4,0.3,6.4,2c4.2,2.3,6.3,6.2,6.3,11.5
				C76.1,29.1,64.2,30.2,63.3,30.2z"/>
			<polygon class="st0" points="39,3.3 39,0 34,0 19.5,15 5,0 0,0 0,3.3 2.6,3.3 2.6,30.2 0,30.2 0,33.6 8.5,33.6 8.5,30.2 
				5.9,30.2 5.9,5.5 17.8,18.3 17.8,23.4 21.2,23.4 21.2,18.3 33.1,5.5 33.1,30.2 30.6,30.2 30.6,33.6 39,33.6 39,30.2 36.4,30.2 
				36.4,3.3 			"/>
		</g>
	</g>
	<g>
		<path class="st3" d="M2.9,48.8c-0.8,0-1.4,0.3-1.9,0.9v-2.5c0-0.3-0.2-0.5-0.5-0.5c-0.3,0-0.5,0.2-0.5,0.5v6.8
			c0,0.3,0.2,0.5,0.5,0.5c0.3,0,0.5-0.2,0.5-0.5v-0.3c0.5,0.6,1.1,0.9,1.9,0.9c1.3,0,2.6-1,2.6-2.9C5.6,49.8,4.2,48.8,2.9,48.8z
			 M2.8,53.6c-0.9,0-1.8-0.7-1.8-1.9c0-1.2,0.9-1.9,1.8-1.9c1,0,1.7,0.8,1.7,1.9C4.5,52.8,3.8,53.6,2.8,53.6z"/>
		<path class="st3" d="M10.9,48.8c-0.2,0-0.4,0.1-0.5,0.4l-1.5,3.9l-1.7-3.9c-0.1-0.3-0.3-0.4-0.5-0.4c-0.3,0-0.5,0.2-0.5,0.5
			c0,0.1,0,0.2,0.1,0.3l2.2,4.6l0,0c-0.3,0.6-0.5,0.9-1,0.9c-0.3,0-0.4,0-0.5-0.1c-0.1,0-0.1,0-0.2,0c-0.3,0-0.5,0.2-0.5,0.5
			c0,0.2,0.1,0.4,0.3,0.5c0.2,0.1,0.5,0.2,0.9,0.2c0.9,0,1.4-0.5,1.9-1.6l2.1-4.9c0-0.1,0-0.2,0-0.2C11.5,49,11.2,48.8,10.9,48.8z"
			/>
		<path class="st3" d="M21.2,47.5c0-0.3-0.2-0.5-0.5-0.5h-5c-0.3,0-0.5,0.2-0.5,0.5c0,0.3,0.2,0.5,0.5,0.5h2v5.9
			c0,0.3,0.2,0.5,0.5,0.5c0.3,0,0.5-0.2,0.5-0.5V48h2C21,48,21.2,47.8,21.2,47.5z"/>
		<path class="st3" d="M23.3,48.8c-1.5,0-2.7,1.3-2.7,2.9c0,1.6,1.2,2.9,2.8,2.9c0.8,0,1.5-0.3,2.1-0.8c0.1-0.1,0.2-0.2,0.2-0.3
			c0-0.4-0.4-0.6-0.8-0.3c-0.4,0.4-0.9,0.6-1.4,0.6c-0.9,0-1.6-0.6-1.7-1.6h3.7c0.3,0,0.5-0.2,0.5-0.5C25.9,50.2,25,48.8,23.3,48.8z
			 M21.7,51.2c0.1-0.9,0.8-1.6,1.6-1.6c1,0,1.4,0.8,1.6,1.6H21.7z"/>
		<path class="st3" d="M27.6,46.6c-0.3,0-0.5,0.2-0.5,0.5v6.8c0,0.3,0.2,0.5,0.5,0.5c0.3,0,0.5-0.2,0.5-0.5v-6.8
			C28.1,46.9,27.9,46.6,27.6,46.6z"/>
		<path class="st3" d="M32.4,51.3l1.7-1.6c0.1-0.1,0.2-0.2,0.2-0.4c0-0.3-0.2-0.5-0.5-0.5c-0.2,0-0.3,0.1-0.4,0.2l-2.7,2.7v-4.6
			c0-0.3-0.2-0.5-0.5-0.5c-0.3,0-0.5,0.2-0.5,0.5v6.8c0,0.3,0.2,0.5,0.5,0.5c0.3,0,0.5-0.2,0.5-0.5v-1l1-1l1.7,2.2
			c0.1,0.2,0.3,0.2,0.4,0.2c0.3,0,0.5-0.2,0.5-0.5c0-0.1-0.1-0.2-0.1-0.3L32.4,51.3z"/>
		<path class="st3" d="M37.9,48.8c-1.6,0-2.9,1.3-2.9,2.9c0,1.6,1.3,2.9,2.9,2.9c1.6,0,2.9-1.3,2.9-2.9C40.7,50,39.5,48.8,37.9,48.8
			z M37.9,53.6c-1,0-1.8-0.8-1.8-2c0-1.1,0.8-1.9,1.8-1.9c1,0,1.8,0.9,1.8,2C39.7,52.8,38.9,53.6,37.9,53.6z"/>
		<path class="st3" d="M48.1,48.8c-0.8,0-1.4,0.3-1.8,0.9c-0.4-0.6-1-0.9-1.7-0.9c-0.8,0-1.3,0.4-1.6,0.8v-0.2
			c0-0.3-0.2-0.5-0.5-0.5c-0.3,0-0.5,0.2-0.5,0.5v4.6c0,0.3,0.2,0.5,0.5,0.5c0.3,0,0.5-0.2,0.5-0.5v-2.7c0-0.9,0.6-1.5,1.4-1.5
			c0.8,0,1.2,0.5,1.2,1.5v2.8c0,0.3,0.2,0.5,0.5,0.5c0.3,0,0.5-0.2,0.5-0.5v-2.7c0-0.9,0.5-1.5,1.3-1.5c0.8,0,1.3,0.5,1.3,1.5v2.7
			c0,0.3,0.2,0.5,0.5,0.5c0.3,0,0.5-0.2,0.5-0.5V51C50.2,49.6,49.4,48.8,48.1,48.8z"/>
		<path class="st3" d="M55.4,46.9c-0.3,0-0.5,0.2-0.5,0.5v6.4c0,0.3,0.2,0.5,0.5,0.5c0.3,0,0.5-0.2,0.5-0.5v-6.4
			C56,47.2,55.7,46.9,55.4,46.9z"/>
		<path class="st3" d="M60.4,48.8c-0.7,0-1.3,0.3-1.7,0.8v-0.2c0-0.3-0.2-0.5-0.5-0.5c-0.3,0-0.5,0.2-0.5,0.5v4.6
			c0,0.3,0.2,0.5,0.5,0.5c0.3,0,0.5-0.2,0.5-0.5v-2.7c0-0.9,0.6-1.5,1.5-1.5c0.9,0,1.3,0.5,1.3,1.5v2.7c0,0.3,0.2,0.5,0.5,0.5
			c0.3,0,0.5-0.2,0.5-0.5V51C62.5,49.6,61.7,48.8,60.4,48.8z"/>
		<path class="st3" d="M68.7,46.6c-0.3,0-0.5,0.2-0.5,0.5v2.5c-0.5-0.6-1.1-0.9-1.9-0.9c-1.3,0-2.6,1-2.6,2.9c0,1.9,1.4,2.9,2.6,2.9
			c0.7,0,1.4-0.3,1.9-0.9v0.4c0,0.3,0.2,0.5,0.5,0.5c0.3,0,0.5-0.2,0.5-0.5v-6.8C69.2,46.9,69,46.6,68.7,46.6z M66.5,53.6
			c-1,0-1.7-0.8-1.7-1.9c0-1.1,0.7-1.9,1.7-1.9c0.9,0,1.8,0.7,1.8,1.9C68.2,52.8,67.3,53.6,66.5,53.6z"/>
		<path class="st3" d="M73.3,48.8c-1.6,0-2.9,1.3-2.9,2.9c0,1.6,1.3,2.9,2.9,2.9c1.6,0,2.9-1.3,2.9-2.9C76.2,50,74.9,48.8,73.3,48.8
			z M73.3,53.6c-1,0-1.8-0.8-1.8-2c0-1.1,0.8-1.9,1.8-1.9c1,0,1.8,0.9,1.8,2C75.1,52.8,74.4,53.6,73.3,53.6z"/>
		<path class="st3" d="M80.1,48.8c-0.7,0-1.3,0.3-1.7,0.8v-0.2c0-0.3-0.2-0.5-0.5-0.5c-0.3,0-0.5,0.2-0.5,0.5v4.6
			c0,0.3,0.2,0.5,0.5,0.5c0.3,0,0.5-0.2,0.5-0.5v-2.7c0-0.9,0.6-1.5,1.5-1.5c0.9,0,1.3,0.5,1.3,1.5v2.7c0,0.3,0.2,0.5,0.5,0.5
			c0.3,0,0.5-0.2,0.5-0.5V51C82.2,49.6,81.4,48.8,80.1,48.8z"/>
		<path class="st3" d="M86,48.8c-1.5,0-2.7,1.3-2.7,2.9c0,1.6,1.2,2.9,2.8,2.9c0.8,0,1.5-0.3,2.1-0.8c0.1-0.1,0.2-0.2,0.2-0.3
			c0-0.4-0.4-0.6-0.8-0.3c-0.4,0.4-0.9,0.6-1.4,0.6c-0.9,0-1.6-0.6-1.7-1.6h3.7c0.3,0,0.5-0.2,0.5-0.5C88.6,50.2,87.7,48.8,86,48.8z
			 M84.4,51.2c0.1-0.9,0.8-1.6,1.6-1.6c1,0,1.4,0.8,1.6,1.6H84.4z"/>
		<path class="st3" d="M91.8,51.1c-0.6-0.2-1.3-0.4-1.3-0.8c0-0.4,0.4-0.6,0.9-0.6c0.4,0,0.9,0.1,1.3,0.4c0,0,0.1,0.1,0.2,0.1
			c0.3,0,0.5-0.2,0.5-0.5c0-0.2-0.1-0.3-0.3-0.4c-0.5-0.3-1.2-0.5-1.7-0.5c-1.1,0-1.9,0.7-1.9,1.7c0,1.1,1.1,1.4,1.8,1.6
			c0.7,0.2,1.2,0.4,1.2,0.8c0,0.4-0.4,0.7-1,0.7c-0.5,0-1.1-0.2-1.6-0.5C90,53,89.9,53,89.8,53c-0.3,0-0.5,0.2-0.5,0.5
			c0,0.2,0.1,0.3,0.2,0.4c0.6,0.4,1.4,0.7,2.1,0.7c1.2,0,2-0.7,2-1.7C93.6,51.7,92.5,51.4,91.8,51.1z"/>
		<path class="st3" d="M95.4,48.8c-0.3,0-0.5,0.2-0.5,0.5v4.6c0,0.3,0.2,0.5,0.5,0.5c0.3,0,0.5-0.2,0.5-0.5v-4.6
			C95.9,49,95.7,48.8,95.4,48.8z"/>
		<path class="st3" d="M95.4,46.8c-0.3,0-0.6,0.2-0.6,0.5v0.1c0,0.3,0.3,0.5,0.6,0.5c0.3,0,0.6-0.2,0.6-0.5v-0.1
			C96,47,95.7,46.8,95.4,46.8z"/>
		<path class="st3" d="M101.4,49.4c-0.4-0.4-1-0.6-1.8-0.6c-0.6,0-1.2,0.1-1.8,0.4c-0.1,0.1-0.3,0.2-0.3,0.4c0,0.2,0.2,0.5,0.5,0.5
			c0.1,0,0.1,0,0.2,0c0.4-0.2,0.9-0.3,1.3-0.3c0.7,0,1.5,0.2,1.5,1.3v0c-0.4-0.1-0.9-0.2-1.5-0.2c-1.5,0-2.4,0.7-2.4,1.8
			c0,1.2,1.1,1.8,2.1,1.8c0.9,0,1.4-0.3,1.8-0.7V54c0,0.3,0.2,0.5,0.5,0.5c0.3,0,0.5-0.2,0.5-0.5V51C102,50.3,101.8,49.8,101.4,49.4
			z M101,52.3c0,0.7-0.7,1.3-1.7,1.3c-0.6,0-1.2-0.3-1.2-1c0-0.6,0.5-1,1.4-1c0.5,0,1,0.1,1.4,0.2V52.3z"/>
	</g>
</g>
</svg>
